<svg width="48" height="48" viewBox="0 0 48 48" fill="none" xmlns="http://www.w3.org/2000/svg">
<g clip-path="url(#clip0)">
<path fill-rule="evenodd" clip-rule="evenodd" d="M24 0.599976C10.8 0.599976 0 11.4 0 24.6C0 35.1 6.9 44.1 16.5 47.4C17.7 47.7 18 46.8 18 46.2C18 45.6 18 44.1 18 42C11.4 43.5 9.9 39 9.9 39C8.7 36.3 7.2 35.4 7.2 35.4C5.1 33.9 7.5 33.9 7.5 33.9C9.9 34.2 11.1 36.3 11.1 36.3C13.2 40.2 16.8 39 18 38.4C18.3 36.9 18.9 35.7 19.5 35.1C14.1 34.5 8.7 32.4 8.7 23.1C8.7 20.4 9.6 18.3 11.1 16.8C10.8 16.2 9.9 13.8 11.4 10.5C11.4 10.5 13.5 9.89998 18 12.9C19.8 12.3 21.9 12 24 12C26.1 12 28.2 12.3 30 12.9C34.5 9.89998 36.6 10.5 36.6 10.5C37.8 13.8 37.2 16.2 36.9 16.8C38.4 18.6 39.3 20.7 39.3 23.1C39.3 32.4 33.6 34.2 28.2 34.8C29.1 36 30 37.5 30 39.6C30 42.9 30 45.3 30 46.2C30 46.8 30.3 47.7 31.8 47.4C41.4 44.1 48.3 35.1 48.3 24.6C48 11.4 37.2 0.599976 24 0.599976Z" fill="white"/>
</g>
<defs>
<clipPath id="clip0">
<rect width="48" height="48" fill="white"/>
</clipPath>
</defs>
</svg>
